<?xml version="1.0" encoding="UTF-8" standalone="no"?>
<svg
   viewBox="0 0 512 512"
   version="1.1"
   id="svg1"
   sodipodi:docname="circle-exclamation.svg"
   inkscape:version="1.3 (0e150ed6c4, 2023-07-21)"
   xmlns:inkscape="http://www.inkscape.org/namespaces/inkscape"
   xmlns:sodipodi="http://sodipodi.sourceforge.net/DTD/sodipodi-0.dtd"
   xmlns="http://www.w3.org/2000/svg"
   xmlns:svg="http://www.w3.org/2000/svg">
  <defs
     id="defs1" />
  <sodipodi:namedview
     id="namedview1"
     pagecolor="#ffffff"
     bordercolor="#000000"
     borderopacity="0.25"
     inkscape:showpageshadow="2"
     inkscape:pageopacity="0.0"
     inkscape:pagecheckerboard="0"
     inkscape:deskcolor="#d1d1d1"
     inkscape:zoom="3.7265625"
     inkscape:cx="255.86583"
     inkscape:cy="256"
     inkscape:window-width="2870"
     inkscape:window-height="1699"
     inkscape:window-x="2792"
     inkscape:window-y="48"
     inkscape:window-maximized="0"
     inkscape:current-layer="svg1" />
  <path
     d="M256 512A256 256 0 1 0 256 0a256 256 0 1 0 0 512zm0-384c13.3 0 24 10.7 24 24V264c0 13.3-10.7 24-24 24s-24-10.7-24-24V152c0-13.3 10.7-24 24-24zM224 352a32 32 0 1 1 64 0 32 32 0 1 1 -64 0z"
     id="path1" />
  <path
     style="fill:#d40000;stroke-width:0.268344"
     d="M 251.30398,511.8084 C 198.42087,511.02784 145.34427,492.79549 102.71384,460.76616 92.005882,452.721 85.069806,446.6871 75.252351,436.87659 64.944806,426.57634 57.379958,417.78814 49.370515,406.80922 7.1353509,348.9156 -8.9028774,276.13826 5.1072429,205.95388 24.075323,110.93237 95.180733,34.744567 188.77987,9.1528981 c 24.1453,-6.6017534 48.5895,-9.50610725 74.46541,-8.84765682 20.13134,0.51227135 39.96625,3.41706792 59.42136,8.70217692 56.46601,15.3393788 105.6571,49.1610598 140.03439,96.2816018 50.62684,69.39366 63.04099,159.70063 33.00146,240.06947 -16.19734,43.33498 -43.54026,81.17097 -79.6354,110.19622 -24.60807,19.7881 -54.20698,35.52486 -84.19792,44.76514 -26.44547,8.14794 -52.751,11.89909 -80.56519,11.48855 z m 12.6962,-128.69885 c 5.76543,-1.52671 10.11837,-4.01074 14.4277,-8.23324 6.42879,-6.29924 9.63921,-13.94073 9.63921,-22.9434 0,-13.67493 -8.78832,-26.03007 -21.56654,-30.31957 -3.9412,-1.32305 -5.63605,-1.57271 -10.63472,-1.56662 -4.39233,0.005 -4.90426,0.0602 -7.91614,0.84858 -14.21929,3.7218 -24.01678,16.38339 -24.01678,31.03761 0,8.80989 3.18268,16.53269 9.35855,22.70855 4.65115,4.65115 9.75,7.4179 16.26829,8.82757 3.65022,0.78941 10.77133,0.61214 14.44043,-0.35948 z m -2.15562,-95.69824 c 7.04756,-1.80247 12.84196,-6.51818 15.88649,-12.92905 0.52195,-1.09911 1.21919,-2.83935 1.54936,-3.86716 l 0.60034,-1.86877 0.085,-59.57233 c 0.0644,-45.1347 0.008,-60.02389 -0.23397,-61.43559 -1.51864,-8.86942 -7.72398,-15.90061 -16.62071,-18.83274 -2.15761,-0.71109 -2.54205,-0.75173 -7.11111,-0.75173 -4.56906,0 -4.9535,0.0406 -7.11111,0.75173 -8.71595,2.87255 -14.63983,9.41148 -16.51652,18.23137 -0.33324,1.56613 -0.38914,10.30887 -0.38914,60.85827 0,65.3595 -0.11819,60.92848 1.7407,65.26416 1.32906,3.09994 2.45845,4.84366 4.66414,7.20128 3.78851,4.04947 8.88388,6.70953 14.30939,7.47031 2.36994,0.33232 6.79973,0.0806 9.1471,-0.51975 z"
     id="path2" />
</svg>
