<?xml version="1.0" encoding="UTF-8" standalone="no"?>
<svg
   viewBox="0 0 512 512"
   version="1.1"
   id="svg1"
   sodipodi:docname="triangle-exclamation.svg"
   inkscape:version="1.3 (0e150ed6c4, 2023-07-21)"
   xmlns:inkscape="http://www.inkscape.org/namespaces/inkscape"
   xmlns:sodipodi="http://sodipodi.sourceforge.net/DTD/sodipodi-0.dtd"
   xmlns="http://www.w3.org/2000/svg"
   xmlns:svg="http://www.w3.org/2000/svg">
  <defs
     id="defs1" />
  <sodipodi:namedview
     id="namedview1"
     pagecolor="#ffffff"
     bordercolor="#000000"
     borderopacity="0.25"
     inkscape:showpageshadow="2"
     inkscape:pageopacity="0.0"
     inkscape:pagecheckerboard="0"
     inkscape:deskcolor="#d1d1d1"
     inkscape:zoom="0.92138672"
     inkscape:cx="-8.6825649"
     inkscape:cy="194.27239"
     inkscape:window-width="2643"
     inkscape:window-height="1339"
     inkscape:window-x="2352"
     inkscape:window-y="432"
     inkscape:window-maximized="0"
     inkscape:current-layer="svg1" />  
  <path
     d="M256 32c14.2 0 27.3 7.5 34.5 19.8l216 368c7.3 12.4 7.3 27.7 .2 40.1S486.3 480 472 480H40c-14.3 0-27.6-7.7-34.7-20.1s-7-27.8 .2-40.1l216-368C228.7 39.5 241.8 32 256 32zm0 128c-13.3 0-24 10.7-24 24V296c0 13.3 10.7 24 24 24s24-10.7 24-24V184c0-13.3-10.7-24-24-24zm32 224a32 32 0 1 0 -64 0 32 32 0 1 0 64 0z"
     id="path1"
     style="fill:#d40000" />
  <path
     style="fill:#ffffff;stroke-width:1.08532"
     d="m 248.53842,318.20131 c -2.08924,-0.66221 -6.06666,-3.46763 -8.83872,-6.23427 -7.64494,-7.63001 -7.64158,-7.59506 -7.24306,-75.36715 0.33867,-57.59365 0.38504,-58.6824 2.68098,-62.94859 8.53833,-15.86547 29.76276,-17.36921 39.98122,-2.83265 l 3.2659,4.64599 0.29673,63.39203 c 0.28443,60.76613 0.21013,63.56089 -1.79369,67.46853 -5.33412,10.40199 -17.25052,15.39401 -28.34936,11.87611 z"
     id="path2" />
  <path
     style="fill:#ffffff;stroke-width:1.08532"
     d="m 248.53842,318.20131 c -2.08924,-0.66221 -6.06666,-3.46763 -8.83872,-6.23427 -7.64494,-7.63001 -7.64158,-7.59506 -7.24306,-75.36715 0.33867,-57.59365 0.38504,-58.6824 2.68098,-62.94859 4.54456,-8.44446 11.7633,-12.82876 21.13669,-12.83736 7.64885,-0.007 14.86633,3.90331 19.1501,10.37524 l 2.96033,4.47248 0.29673,63.29352 c 0.28442,60.66891 0.21004,63.46256 -1.79369,67.37002 -5.33412,10.40199 -17.25052,15.39401 -28.34936,11.87611 z"
     id="path3" />
  <path
     style="fill:#ffffff;stroke-width:1.08532"
     d="m 247.99576,318.00977 c -6.40908,-2.24674 -13.12798,-10.10141 -14.65295,-17.12991 -0.85777,-3.95341 -1.12635,-23.43512 -0.88617,-64.27997 0.33867,-57.59365 0.38504,-58.6824 2.68098,-62.94859 8.8387,-16.42361 30.74673,-17.42848 40.61803,-1.86305 l 3.17175,5.00132 v 62.77935 c 0,60.32939 -0.0835,62.94298 -2.13915,66.97241 -3.86893,7.58373 -12.99551,13.16467 -21.32116,13.03796 -1.72153,-0.0262 -5.08362,-0.73249 -7.47133,-1.56952 z"
     id="path5" />
  <path
     style="fill:#ffffff;stroke-width:1.08532"
     d="m 242.34131,411.90663 c -10.4509,-5.28669 -16.37856,-13.82518 -17.39729,-25.05988 -2.16885,-23.91847 23.06248,-41.52383 44.48753,-31.04153 11.33755,5.54695 17.55868,15.58286 17.60372,28.39828 0.0314,8.93557 -2.58377,15.26883 -8.9398,21.6498 -6.15033,6.17447 -11.5106,8.48796 -20.87448,9.00942 -7.44343,0.41451 -8.71659,0.16158 -14.87968,-2.95609 z"
     id="path6" />
  <path
     style="fill:#ffd218;stroke-width:1.08532;fill-opacity:1"
     d="M 31.72877,478.53732 C 26.804623,477.36938 19.719161,473.90292 14.952908,470.32998 7.4572005,464.71094 0.54266031,450.44397 0.54266031,440.5969 c 0,-11.15586 -0.81007625,-9.69605 113.02095969,-203.67104 64.79163,-110.40887 112.35282,-190.341922 114.69443,-192.759603 2.20031,-2.27178 7.16651,-5.69054 11.03599,-7.597244 6.37109,-3.139379 7.9596,-3.462518 16.82247,-3.422087 8.52233,0.03888 10.62853,0.45098 16.29896,3.189075 3.58156,1.729434 8.65108,5.3723 11.2656,8.095257 3.29003,3.426482 38.44826,62.382722 114.18817,191.480162 60.18897,102.59113 110.308,188.79272 111.37563,191.55909 1.29854,3.36471 1.9106,7.75989 1.84886,13.27695 -0.16902,15.10798 -8.85685,28.21441 -23.24211,35.06301 l -7.05459,3.35858 -222.49072,0.1688 c -127.47214,0.0967 -224.236074,-0.24516 -226.57754,-0.80053 z m 238.04689,-65.16526 c 6.94004,-2.98553 14.37311,-11.16228 16.80622,-18.48771 2.45272,-7.38442 1.73313,-19.22656 -1.55855,-25.64879 -10.72053,-20.91631 -40.39583,-23.69548 -54.56892,-5.11052 -9.73169,12.76103 -8.82008,30.80661 2.12909,42.14565 9.80981,10.15912 23.85177,12.84025 37.19216,7.10137 z m 0.0824,-97.03727 c 2.88338,-2.02652 5.77923,-5.44918 7.66564,-9.0602 l 3.0317,-5.80333 -0.006,-60.38269 c -0.004,-39.55255 -0.40679,-61.82589 -1.1677,-64.56627 -1.55732,-5.60852 -8.73456,-13.18383 -14.62093,-15.43185 -11.28992,-4.31165 -24.42735,0.65443 -30.01211,11.34489 l -3.03263,5.80511 v 61.7742 c 0,66.57054 -0.11407,65.15275 5.80659,72.17382 4.90396,5.81543 10.89704,8.14908 19.90138,7.74941 6.59721,-0.29283 8.51484,-0.84852 12.43412,-3.60309 z"
     id="path4" />
</svg>
